<?xml version="1.0" standalone="no"?>
<!DOCTYPE svg PUBLIC "-//W3C//DTD SVG 20010904//EN"
 "http://www.w3.org/TR/2001/REC-SVG-20010904/DTD/svg10.dtd">
<svg version="1.0" xmlns="http://www.w3.org/2000/svg"
 width="1024.000000pt" height="1024.000000pt" viewBox="0 0 1024.000000 1024.000000"
 preserveAspectRatio="xMidYMid meet">

<g transform="translate(0.000000,1024.000000) scale(0.100000,-0.100000)"
fill="#000000" stroke="none">
<path d="M4745 9601 l-160 -161 3 -238 c2 -130 7 -240 10 -244 7 -6 151 18
160 27 3 3 -6 5 -19 6 -24 1 -24 1 4 13 15 7 24 15 20 19 -4 5 3 10 15 14 12
3 22 12 22 19 0 8 4 14 9 14 17 0 71 55 71 72 0 11 7 18 20 18 10 0 24 9 30
20 6 11 7 20 3 20 -12 0 -15 257 -4 277 6 11 9 -13 10 -76 1 -51 6 -124 11
-163 6 -38 7 -80 4 -94 l-6 -24 246 0 246 0 0 25 c0 29 6 31 26 11 8 -8 23
-13 34 -11 13 2 20 -2 20 -11 0 -8 6 -14 14 -14 18 0 23 89 22 343 -1 114 2
173 7 150 4 -21 6 -181 5 -355 l-3 -317 65 -6 c36 -3 130 -15 210 -27 80 -11
169 -22 198 -25 28 -3 52 -9 52 -14 0 -11 47 -12 54 -1 10 16 -289 76 -438 88
l-86 7 0 306 c0 315 -13 463 -41 483 -11 7 -265 5 -459 -4 -14 -1 -68 2 -120
6 l-95 8 -160 -161z m203 122 c-35 -9 -17 -23 29 -23 55 0 52 -10 -3 -13 l-39
-3 -6 -84 -5 -85 -2 108 c-2 105 -2 107 21 106 16 -1 18 -2 5 -6z m129 0 c-20
-2 -52 -2 -70 0 -17 2 0 4 38 4 39 0 53 -2 32 -4z m230 1 c-3 -3 -12 -4 -19
-1 -8 3 -5 6 6 6 11 1 17 -2 13 -5z m116 -1 c-13 -2 -33 -2 -45 0 -13 2 -3 4
22 4 25 0 35 -2 23 -4z m133 -29 c-7 -7 -14 -8 -22 0 -7 7 -8 14 0 22 7 7 14
8 22 0 7 -7 8 -14 0 -22z m-213 9 c-13 -2 -33 -2 -45 0 -13 2 -3 4 22 4 25 0
35 -2 23 -4z m60 -20 c-24 -2 -62 -2 -85 0 -24 2 -5 4 42 4 47 0 66 -2 43 -4z
m127 -8 c0 -8 -2 -15 -4 -15 -2 0 -6 7 -10 15 -3 8 -1 15 4 15 6 0 10 -7 10
-15z m-583 -117 c-2 -24 -4 -5 -4 42 0 47 2 66 4 43 2 -24 2 -62 0 -85z m513
52 c0 -5 -2 -10 -4 -10 -3 0 -8 5 -11 10 -3 6 -1 10 4 10 6 0 11 -4 11 -10z
m77 -72 c-2 -13 -4 -3 -4 22 0 25 2 35 4 23 2 -13 2 -33 0 -45z m0 -150 c-2
-18 -4 -4 -4 32 0 36 2 50 4 33 2 -18 2 -48 0 -65z m-76 -65 c1 -55 -2 -117
-7 -122 -8 -9 -12 6 -19 82 -6 67 -5 77 9 77 12 0 16 -10 17 -37z m76 -90 c-2
-21 -4 -4 -4 37 0 41 2 58 4 38 2 -21 2 -55 0 -75z"/>
<path d="M4920 9108 c0 -9 5 -20 10 -23 13 -8 13 5 0 25 -8 13 -10 13 -10 -2z"/>
<path d="M5531 9054 c0 -11 3 -14 6 -6 3 7 2 16 -1 19 -3 4 -6 -2 -5 -13z"/>
<path d="M4921 9024 c0 -11 3 -14 6 -6 3 7 2 16 -1 19 -3 4 -6 -2 -5 -13z"/>
<path d="M4858 8933 c7 -3 16 -2 19 1 4 3 -2 6 -13 5 -11 0 -14 -3 -6 -6z"/>
<path d="M4700 8926 c0 -2 7 -7 16 -10 8 -3 12 -2 9 4 -6 10 -25 14 -25 6z"/>
<path d="M4595 8910 c-29 -8 -29 -8 8 -7 20 1 37 5 37 9 0 9 -3 9 -45 -2z"/>
<path d="M4530 8900 l-25 -8 28 -1 c15 -1 27 4 27 9 0 6 -1 10 -2 9 -2 -1 -14
-5 -28 -9z"/>
<path d="M5688 8903 c7 -3 16 -2 19 1 4 3 -2 6 -13 5 -11 0 -14 -3 -6 -6z"/>
<path d="M4468 8883 c6 -2 18 -2 25 0 6 3 1 5 -13 5 -14 0 -19 -2 -12 -5z"/>
<path d="M5608 8883 c7 -3 16 -2 19 1 4 3 -2 6 -13 5 -11 0 -14 -3 -6 -6z"/>
<path d="M5878 8883 c7 -3 16 -2 19 1 4 3 -2 6 -13 5 -11 0 -14 -3 -6 -6z"/>
<path d="M6168 8853 c7 -3 16 -2 19 1 4 3 -2 6 -13 5 -11 0 -14 -3 -6 -6z"/>
<path d="M3813 8725 c-59 -22 -149 -75 -128 -75 5 0 27 8 49 19 23 10 66 28
96 41 104 42 89 56 -17 15z"/>
<path d="M3258 8398 c-7 -7 -47 -39 -88 -70 -86 -65 -444 -424 -511 -513 -53
-69 -126 -184 -131 -204 -2 -7 -13 -24 -24 -37 -29 -33 -108 -189 -154 -304
-39 -100 -80 -253 -102 -380 -21 -122 -17 -563 5 -675 23 -113 69 -288 77
-295 4 -3 10 -19 13 -36 9 -45 87 -205 98 -199 5 4 6 -1 3 -9 -9 -25 119 -224
225 -351 45 -53 201 -203 270 -259 180 -146 507 -332 712 -405 30 -11 99 -36
154 -56 161 -58 417 -133 599 -175 93 -21 173 -44 177 -51 14 -23 16 -1788 2
-1811 -4 -7 -90 22 -125 42 -10 6 -23 10 -30 9 -21 0 80 -48 182 -86 98 -36
285 -77 302 -67 6 4 7 76 2 193 -4 102 -8 611 -8 1131 l-1 944 -255 59 c-382
88 -491 123 -810 260 -396 170 -728 411 -936 681 -60 77 -92 111 -97 103 -6
-8 -7 -5 -3 6 4 13 -13 50 -51 110 -52 85 -112 229 -113 270 0 9 -4 17 -9 17
-4 0 -16 33 -25 73 -93 405 -65 892 75 1277 21 60 21 59 71 176 33 76 34 81
19 104 -12 17 -12 22 -2 16 8 -5 17 -3 23 5 6 10 7 6 3 -11 -5 -20 -2 -19 17
11 26 40 92 122 126 157 12 13 22 27 22 33 0 5 71 81 159 169 87 88 157 160
156 160 -2 0 -10 -6 -17 -12z m-500 -562 c-7 -8 -15 -12 -17 -11 -5 6 10 25
20 25 5 0 4 -6 -3 -14z m-72 -66 c8 0 14 5 14 10 0 6 5 10 12 10 8 0 6 -6 -4
-16 -18 -18 -48 -13 -47 8 0 10 2 10 6 1 2 -7 11 -13 19 -13z m-47 -75 l0 -20
-9 20 c-5 11 -9 27 -9 35 -1 13 0 13 9 0 5 -8 9 -24 9 -35z m-32 -7 c-3 -8 -6
-5 -6 6 -1 11 2 17 5 13 3 -3 4 -12 1 -19z m-43 -63 c-15 -22 -31 -36 -21 -17
2 4 7 15 10 25 4 9 11 17 17 17 6 0 3 -11 -6 -25z m41 -1375 c3 -5 1 -10 -4
-10 -6 0 -11 5 -11 10 0 6 2 10 4 10 3 0 8 -4 11 -10z m65 -192 c4 -51 -2 -50
-15 2 -8 30 -14 60 -15 65 0 20 29 -45 30 -67z m80 -133 c11 -13 10 -14 -4 -9
-9 3 -16 10 -16 15 0 13 6 11 20 -6z m-363 -73 c8 -18 13 -40 11 -50 -4 -19
-39 71 -37 97 0 14 1 14 6 1 2 -8 11 -30 20 -48z m86 -187 c-3 -9 -8 -14 -10
-11 -3 3 -2 9 2 15 9 16 15 13 8 -4z m2144 -2237 c-3 -7 -5 -2 -5 12 0 14 2
19 5 13 2 -7 2 -19 0 -25z m223 4 c0 -5 -9 -17 -20 -27 -20 -18 -20 -17 -20 8
0 20 5 27 20 27 11 0 20 -4 20 -8z m-203 -129 c-2 -16 -4 -3 -4 27 0 30 2 43
4 28 2 -16 2 -40 0 -55z m-20 0 c-2 -16 -4 -5 -4 22 0 28 2 40 4 28 2 -13 2
-35 0 -50z m153 49 c0 -5 -11 -14 -25 -20 -22 -10 -25 -9 -25 8 0 15 7 20 25
20 14 0 25 -4 25 -8z m-153 -189 c-3 -10 -5 -4 -5 12 0 17 2 24 5 18 2 -7 2
-21 0 -30z m20 -5 c-3 -8 -6 -5 -6 6 -1 11 2 17 5 13 3 -3 4 -12 1 -19z"/>
<path d="M5584 7794 c10 -141 27 -585 29 -754 2 -93 4 -48 5 103 2 223 4 269
16 273 16 6 127 -51 186 -95 159 -119 280 -346 312 -585 11 -83 16 -99 33
-106 11 -4 29 -17 39 -29 19 -21 20 -21 695 -21 614 0 679 2 701 17 42 28 271
256 286 285 20 38 18 47 -11 40 -29 -8 -630 3 -931 17 -130 6 -259 6 -339 1
-145 -11 -155 -8 -155 49 -1 62 -46 226 -92 336 -120 284 -413 503 -721 541
l-59 7 6 -79z m823 -836 c-3 -8 -6 -5 -6 6 -1 11 2 17 5 13 3 -3 4 -12 1 -19z"/>
<path d="M4775 7835 c-102 -26 -184 -54 -335 -117 -115 -47 -170 -93 -253
-212 -79 -114 -100 -156 -143 -286 -36 -111 -57 -390 -39 -515 22 -158 107
-326 214 -429 50 -48 36 -19 -22 45 -56 62 -124 187 -151 278 -24 82 -30 192
-17 336 17 192 58 322 125 402 44 52 179 114 326 149 36 8 76 20 91 25 39 15
308 290 311 318 2 13 -1 25 -7 27 -5 1 -50 -8 -100 -21z"/>
<path d="M5608 6723 c-2 -60 0 -112 4 -117 4 -6 8 43 8 107 0 64 -2 117 -4
117 -2 0 -6 -48 -8 -107z"/>
<path d="M4891 6724 c-1 -14 -69 -84 -81 -84 -6 0 -10 -5 -10 -11 0 -13 -58
-69 -71 -69 -5 0 -9 -5 -9 -11 0 -13 -58 -69 -71 -69 -5 0 -9 -7 -9 -16 0 -16
-29 -51 -31 -37 -1 4 -5 -5 -9 -22 -4 -16 -8 -100 -9 -186 l-1 -155 48 -17
c60 -22 132 -23 132 -2 0 8 7 15 15 15 8 0 15 7 15 16 0 16 66 84 81 84 5 0 9
-8 10 -17 0 -15 2 -15 9 2 11 26 12 497 1 550 -5 22 -9 35 -10 29z"/>
<path d="M5600 6267 c0 -68 4 -117 10 -117 10 0 7 217 -4 227 -3 4 -6 -46 -6
-110z"/>
<path d="M4275 6230 c10 -11 20 -20 23 -20 3 0 -3 9 -13 20 -10 11 -20 20 -23
20 -3 0 3 -9 13 -20z"/>
<path d="M5608 5913 c-4 -25 -2 -73 5 -73 4 0 7 18 7 40 0 35 -7 55 -12 33z"/>
<path d="M5600 5820 c0 -5 5 -10 10 -10 6 0 10 5 10 10 0 6 -4 10 -10 10 -5 0
-10 -4 -10 -10z"/>
<path d="M6735 5475 c349 -168 454 -222 515 -265 15 -11 32 -20 38 -20 5 0 15
-7 22 -15 7 -8 17 -15 23 -15 17 0 -91 77 -188 134 -117 70 -209 115 -321 160
-90 35 -148 49 -89 21z"/>
<path d="M7539 4983 c213 -215 361 -471 432 -743 26 -98 59 -279 70 -376 18
-169 -3 -456 -52 -697 -11 -56 -27 -134 -35 -174 -39 -192 -148 -421 -296
-619 -154 -208 -340 -388 -452 -439 -45 -20 -72 -39 -127 -87 -8 -8 -21 -12
-29 -10 -7 3 -10 0 -6 -6 9 -15 -112 -92 -244 -155 -147 -70 -204 -91 -230
-84 -11 3 -18 1 -14 -4 3 -5 -6 -9 -19 -9 -13 0 -61 -11 -108 -26 -46 -14
-131 -36 -189 -50 -58 -14 -130 -34 -160 -45 -77 -29 -128 -37 -255 -39 -60
-1 -141 -4 -180 -8 l-70 -7 -5 -347 c-3 -190 -8 -350 -13 -354 -4 -4 -5 6 -2
22 3 16 1 94 -3 174 l-9 145 -3 -160 c-1 -88 -5 -146 -9 -130 -4 17 -6 86 -6
155 1 69 0 90 -2 47 l-4 -77 -30 0 c-29 0 -30 -2 -29 -38 6 -135 -13 -169 -24
-42 l-7 80 -195 0 -194 0 0 40 0 40 -40 0 -40 0 -2 -112 -2 -113 -6 115 -6
115 -2 -122 c-1 -89 1 -123 11 -126 6 -2 8 -8 4 -13 -22 -23 -28 31 -23 211 2
105 1 213 -3 240 -5 32 -9 -47 -10 -221 l-1 -271 213 -7 c219 -8 343 -22 222
-26 -33 -1 -140 -5 -238 -9 l-177 -6 -150 -151 c-130 -131 -148 -153 -134
-165 11 -9 89 -12 322 -13 288 -1 310 0 337 18 17 11 87 77 157 148 99 99 130
138 138 168 6 22 10 126 10 236 -1 108 2 200 7 205 4 4 53 15 108 24 317 50
651 161 925 308 109 58 311 190 385 251 213 176 354 314 507 496 262 311 411
626 488 1025 35 181 51 502 30 629 -5 33 -17 117 -25 186 -42 327 -148 593
-332 833 -62 81 -238 257 -257 257 -2 0 35 -39 83 -87z m-2482 -4255 c-3 -8
-6 -5 -6 6 -1 11 2 17 5 13 3 -3 4 -12 1 -19z m20 0 c-3 -8 -6 -5 -6 6 -1 11
2 17 5 13 3 -3 4 -12 1 -19z m20 0 c-3 -8 -6 -5 -6 6 -1 11 2 17 5 13 3 -3 4
-12 1 -19z m33 -48 c18 -12 -50 -12 -125 0 -48 7 -46 7 30 9 44 0 87 -4 95 -9z
m430 -10 c0 -5 -9 -10 -20 -10 -11 0 -20 5 -20 10 0 6 9 10 20 10 11 0 20 -4
20 -10z"/>
<path d="M5596 4068 c-3 -271 -9 -742 -12 -1047 l-6 -554 74 7 c100 10 252 49
338 87 39 18 69 34 67 36 -2 2 -39 -8 -83 -23 -113 -37 -313 -86 -336 -82 -19
3 -20 16 -21 811 0 592 2 810 11 819 12 12 134 -29 237 -80 27 -14 61 -28 75
-32 14 -5 33 -11 43 -15 11 -5 17 -3 17 6 0 14 60 78 125 134 19 17 35 33 35
37 0 12 61 68 75 68 18 0 27 28 12 40 -7 5 -28 22 -47 38 -65 54 -232 149
-314 179 -47 17 -242 63 -267 63 -16 0 -18 -40 -23 -492z"/>
<path d="M2425 3740 c-13 -5 23 -9 98 -9 72 -1 117 3 117 9 0 12 -186 12 -215
0z"/>
<path d="M2280 3665 c-8 -9 -8 -15 -2 -15 12 0 26 19 19 26 -2 2 -10 -2 -17
-11z"/>
<path d="M2105 3490 c-3 -5 -1 -10 4 -10 6 0 11 5 11 10 0 6 -2 10 -4 10 -3 0
-8 -4 -11 -10z"/>
<path d="M2075 3459 c-4 -6 -5 -12 -2 -15 2 -3 7 2 10 11 7 17 1 20 -8 4z"/>
<path d="M6560 3295 c0 -8 -3 -15 -8 -15 -9 0 -152 -139 -152 -149 -1 -3 -21
-22 -45 -41 -25 -19 -45 -41 -45 -49 0 -7 -6 -11 -14 -8 -10 4 -21 -20 -41
-91 -15 -53 -35 -119 -45 -147 -35 -95 -35 -104 -6 -66 14 19 26 31 26 27 0
-4 10 4 23 19 55 64 179 185 186 181 12 -8 67 85 94 160 25 69 46 194 33 194
-3 0 -6 -7 -6 -15z"/>
<path d="M2951 2101 c-7 -5 -11 -13 -8 -18 7 -11 -39 -57 -66 -66 -10 -4 -16
-11 -13 -15 6 -10 -41 -56 -67 -65 -10 -4 -16 -11 -13 -16 6 -9 -70 -81 -85
-81 -4 0 -11 9 -14 20 -3 11 -11 20 -16 20 -17 0 -9 -20 22 -53 17 -17 36 -39
43 -47 18 -24 132 -124 212 -187 186 -146 509 -306 799 -396 206 -64 683 -156
810 -157 39 0 46 6 188 148 81 82 147 156 147 165 0 16 -16 19 -175 32 -38 3
-113 14 -165 25 -52 10 -129 24 -170 30 -138 22 -420 101 -530 147 -44 19
-146 71 -185 95 -16 10 -36 21 -44 24 -7 4 -66 36 -130 72 -64 35 -145 80
-181 100 -36 19 -84 48 -107 63 -23 16 -46 29 -51 29 -6 0 -12 7 -16 15 -3 8
-10 15 -16 15 -6 0 -23 11 -38 25 -15 14 -32 25 -39 25 -6 0 -19 10 -27 21
-10 15 -21 20 -36 16 -16 -4 -20 -2 -16 9 6 16 6 17 -13 5z m-215 -288 c-7 -7
-26 7 -26 19 0 6 6 6 15 -2 9 -7 13 -15 11 -17z"/>
<path d="M2690 1906 c0 -2 7 -9 15 -16 12 -10 15 -10 15 4 0 9 -7 16 -15 16
-8 0 -15 -2 -15 -4z"/>
<path d="M4921 1314 c0 -11 3 -14 6 -6 3 7 2 16 -1 19 -3 4 -6 -2 -5 -13z"/>
<path d="M4922 1260 c0 -14 2 -19 5 -12 2 6 2 18 0 25 -3 6 -5 1 -5 -13z"/>
<path d="M4951 974 c0 -11 3 -14 6 -6 3 7 2 16 -1 19 -3 4 -6 -2 -5 -13z"/>
</g>
</svg>
